<svg width="190" height="190" viewBox="0 0 190 190" fill="none" xmlns="http://www.w3.org/2000/svg">
<path d="M166.25 174.167H23.7502C19.396 174.167 15.8335 170.604 15.8335 166.25V39.5834C15.8335 35.2292 19.396 31.6667 23.7502 31.6667H166.25C170.604 31.6667 174.167 35.2292 174.167 39.5834V166.25C174.167 170.604 170.604 174.167 166.25 174.167Z" fill="#A4C6DE"/>
<path d="M174.167 63.3334H15.8335V39.5834C15.8335 35.2292 19.396 31.6667 23.7502 31.6667H166.25C170.604 31.6667 174.167 35.2292 174.167 39.5834V63.3334Z" fill="#188BBD"/>
<path d="M49.4792 47.4999C45.125 47.4999 41.5625 43.9374 41.5625 39.5833V23.7499C41.5625 19.3958 45.125 15.8333 49.4792 15.8333C53.8333 15.8333 57.3958 19.3958 57.3958 23.7499V39.5833C57.3958 43.9374 53.8333 47.4999 49.4792 47.4999ZM138.542 47.4999C134.188 47.4999 130.625 43.9374 130.625 39.5833V23.7499C130.625 19.3958 134.188 15.8333 138.542 15.8333C142.896 15.8333 146.458 19.3958 146.458 23.7499V39.5833C146.458 43.9374 142.896 47.4999 138.542 47.4999Z" fill="#84D2DB"/>
<path d="M39.5835 110.833H55.4168V126.667H39.5835V110.833Z" fill="#2BA0D3"/>
<path d="M39.5835 138.542H55.4168V154.375H39.5835V138.542Z" fill="#53A4C7"/>
<path d="M71.25 110.833H87.0833V126.667H71.25V110.833Z" fill="#2BA0D3"/>
<path d="M71.25 138.542H87.0833V154.375H71.25V138.542Z" fill="#53A4C7"/>
<path d="M102.917 110.833H118.75V126.667H102.917V110.833Z" fill="#2BA0D3"/>
<path d="M102.917 138.542H118.75V154.375H102.917V138.542Z" fill="#53A4C7"/>
<path d="M134.583 110.833H150.417V126.667H134.583V110.833Z" fill="#2BA0D3"/>
<path d="M71.25 83.125H87.0833V98.9583H71.25V83.125ZM102.917 83.125H118.75V98.9583H102.917V83.125ZM134.583 83.125H150.417V98.9583H134.583V83.125Z" fill="#188BBD"/>
</svg>
