<svg width="24" height="24" viewBox="0 0 24 24" fill="none" xmlns="http://www.w3.org/2000/svg">
<g clip-path="url(#clip0_1_52)">
<path d="M17.4863 -9.8604e-05C16.125 0.0917763 14.6681 0.901776 13.7663 1.9949C12.9769 2.95678 12.315 4.36865 12.5663 5.8349C12.3413 5.76553 12.1369 5.75803 11.8913 5.6699C11.2219 5.43178 10.4569 5.1749 9.50625 5.1749C7.61813 5.1749 5.685 6.29803 4.46625 8.1749C2.6925 10.9012 3.04875 15.6993 5.74125 19.7999C6.21563 20.5199 6.76875 21.3055 7.45125 21.9299C8.13375 22.5543 8.95875 23.0305 9.92625 23.0399C10.7531 23.0493 11.3288 22.7737 11.8463 22.5449C12.3638 22.3162 12.8456 22.1137 13.7513 22.1099C13.7569 22.1099 13.7606 22.1099 13.7663 22.1099C14.6681 22.1024 15.135 22.3012 15.6413 22.5299C16.1475 22.7587 16.7175 23.0474 17.5463 23.0399C18.5325 23.0324 19.3706 22.4924 20.0663 21.8249C20.7619 21.1574 21.3338 20.338 21.8063 19.6199C22.4831 18.5887 22.755 18.0262 23.2763 16.8749C23.3306 16.7549 23.3325 16.6162 23.28 16.4943C23.2294 16.3724 23.13 16.2768 23.0063 16.2299C21.3 15.5849 20.3269 14.0755 20.1863 12.4799C20.0456 10.8843 20.7206 9.24178 22.4213 8.3099C22.5469 8.2424 22.635 8.12428 22.665 7.98553C22.6931 7.84678 22.6594 7.70053 22.5713 7.5899C21.3506 6.07303 19.6331 5.1749 17.9513 5.1749C16.8788 5.1749 16.0913 5.42803 15.4463 5.6699C15.3394 5.71115 15.2606 5.7074 15.1613 5.7449C15.8156 5.3999 16.3931 4.92178 16.8263 4.3649C17.6138 3.35428 18.2213 1.91615 17.9963 0.404901C17.9588 0.157401 17.7356 -0.0188486 17.4863 -9.8604e-05ZM16.9763 1.1399C16.9444 2.10928 16.6125 3.05803 16.0613 3.7649C15.4838 4.5074 14.5125 5.02115 13.5713 5.1749C13.5881 4.24303 13.9556 3.2774 14.5163 2.5949C15.105 1.8824 16.08 1.36865 16.9763 1.1399ZM9.50625 6.1349C9.92625 6.1349 10.9013 6.33553 11.5613 6.5699C12.2213 6.80428 12.9169 7.0799 13.7363 7.0799C14.5369 7.0799 15.1706 6.8024 15.7913 6.5699C16.4119 6.3374 17.0306 6.1349 17.9513 6.1349C19.1531 6.1349 20.4525 6.75928 21.4763 7.8449C19.8375 9.00178 19.0706 10.8055 19.2263 12.5549C19.3819 14.323 20.4469 16.0012 22.1963 16.8749C22.1937 16.8804 22.1912 16.8858 22.1888 16.8912C21.8142 17.7071 21.5644 18.2511 21.0113 19.0949C20.5519 19.7943 20.0063 20.5593 19.4063 21.1349C18.8063 21.7105 18.1706 22.0743 17.5313 22.0799C16.9144 22.0855 16.5638 21.9018 16.0313 21.6599C15.4988 21.418 14.8106 21.1405 13.7513 21.1499C12.6938 21.1555 11.9963 21.4218 11.4563 21.6599C10.9163 21.898 10.5619 22.0855 9.94125 22.0799C9.285 22.0743 8.67563 21.7555 8.09625 21.2249C7.51688 20.6943 6.99375 19.9705 6.53625 19.2749C4.01625 15.4349 3.81375 10.9237 5.26125 8.6999C6.3225 7.06678 9.08625 6.1349 9.50625 6.1349Z" fill="black"/>
<path d="M9.50625 6.1349C9.92625 6.1349 10.9013 6.33553 11.5613 6.5699C12.2213 6.80428 12.9169 7.0799 13.7363 7.0799C14.5369 7.0799 15.1706 6.8024 15.7913 6.5699C16.4119 6.3374 17.0306 6.1349 17.9513 6.1349C19.1531 6.1349 20.4525 6.75928 21.4763 7.8449C19.8375 9.00178 19.0706 10.8055 19.2263 12.5549C19.3819 14.323 20.4469 16.0012 22.1963 16.8749L22.1888 16.8912C21.8142 17.7071 21.5644 18.2511 21.0113 19.0949C20.5519 19.7943 20.0063 20.5593 19.4063 21.1349C18.8063 21.7105 18.1706 22.0743 17.5313 22.0799C16.9144 22.0855 16.5638 21.9018 16.0313 21.6599C15.4988 21.418 14.8106 21.1405 13.7513 21.1499C12.6938 21.1555 11.9963 21.4218 11.4563 21.6599C10.9163 21.898 10.5619 22.0855 9.94125 22.0799C9.285 22.0743 8.67563 21.7555 8.09625 21.2249C7.51688 20.6943 6.99375 19.9705 6.53625 19.2749C4.01625 15.4349 3.81375 10.9237 5.26125 8.6999C6.3225 7.06678 9.08625 6.1349 9.50625 6.1349Z" fill="black"/>
<path d="M16.9763 1.1399C16.9444 2.10928 16.6125 3.05803 16.0613 3.7649C15.4838 4.5074 14.5125 5.02115 13.5713 5.1749C13.5881 4.24303 13.9556 3.2774 14.5163 2.5949C15.105 1.8824 16.08 1.36865 16.9763 1.1399Z" fill="black"/>
</g>
<defs>
<clipPath id="clip0_1_52">
<rect width="24" height="24" fill="white"/>
</clipPath>
</defs>
</svg>
