<svg width="41" height="38" viewBox="0 0 41 38" fill="none" xmlns="http://www.w3.org/2000/svg">
<path d="M13.55 28.9375H23.45V27.25L21.8 26.4062C22.7075 26.4062 23.4844 26.0758 24.1306 25.4148C24.7769 24.7539 25.1 23.9594 25.1 23.0312V15.4375C25.1 14.2281 24.5912 13.3633 23.5737 12.843C22.5562 12.3227 20.865 12.0625 18.5 12.0625C16.2175 12.0625 14.5469 12.3297 13.4881 12.8641C12.4294 13.3984 11.9 14.2562 11.9 15.4375V23.0312C11.9 23.9594 12.2231 24.7539 12.8694 25.4148C13.5156 26.0758 14.2925 26.4062 15.2 26.4062L13.55 27.25V28.9375ZM15.6125 24.7188C15.255 24.7188 14.9594 24.5992 14.7256 24.3602C14.4919 24.1211 14.375 23.8188 14.375 23.4531C14.375 23.0875 14.4919 22.7852 14.7256 22.5461C14.9594 22.307 15.255 22.1875 15.6125 22.1875C15.97 22.1875 16.2656 22.307 16.4994 22.5461C16.7331 22.7852 16.85 23.0875 16.85 23.4531C16.85 23.8188 16.7331 24.1211 16.4994 24.3602C16.2656 24.5992 15.97 24.7188 15.6125 24.7188ZM21.3875 24.7188C21.03 24.7188 20.7344 24.5992 20.5006 24.3602C20.2669 24.1211 20.15 23.8188 20.15 23.4531C20.15 23.0875 20.2669 22.7852 20.5006 22.5461C20.7344 22.307 21.03 22.1875 21.3875 22.1875C21.745 22.1875 22.0406 22.307 22.2744 22.5461C22.5081 22.7852 22.625 23.0875 22.625 23.4531C22.625 23.8188 22.5081 24.1211 22.2744 24.3602C22.0406 24.5992 21.745 24.7188 21.3875 24.7188ZM14.375 20.5V15.4375H22.625V20.5H14.375ZM5.3 34C4.3925 34 3.61563 33.6695 2.96938 33.0086C2.32313 32.3477 2 31.5531 2 30.625V24.9297C2 24.6203 2.09625 24.3531 2.28875 24.1281C2.48125 23.9031 2.72875 23.7625 3.03125 23.7063C3.69125 23.4813 4.23438 23.0734 4.66062 22.4828C5.08687 21.8922 5.3 21.2312 5.3 20.5C5.3 19.7688 5.08687 19.1078 4.66062 18.5172C4.23438 17.9266 3.69125 17.5188 3.03125 17.2937C2.72875 17.2375 2.48125 17.0969 2.28875 16.8719C2.09625 16.6469 2 16.3797 2 16.0703V10.375C2 9.44688 2.32313 8.65234 2.96938 7.99141C3.61563 7.33047 4.3925 7 5.3 7H31.7C32.6075 7 33.3844 7.33047 34.0306 7.99141C34.6769 8.65234 35 9.44688 35 10.375V16.0703C35 16.3797 34.9038 16.6469 34.7113 16.8719C34.5187 17.0969 34.2712 17.2375 33.9688 17.2937C33.3088 17.5188 32.7656 17.9266 32.3394 18.5172C31.9131 19.1078 31.7 19.7688 31.7 20.5C31.7 21.2312 31.9131 21.8922 32.3394 22.4828C32.7656 23.0734 33.3088 23.4813 33.9688 23.7063C34.2712 23.7625 34.5187 23.9031 34.7113 24.1281C34.9038 24.3531 35 24.6203 35 24.9297V30.625C35 31.5531 34.6769 32.3477 34.0306 33.0086C33.3844 33.6695 32.6075 34 31.7 34H5.3ZM5.3 30.625H31.7V26.3219C30.6825 25.7031 29.8781 24.8805 29.2869 23.8539C28.6956 22.8273 28.4 21.7094 28.4 20.5C28.4 19.2906 28.6956 18.1727 29.2869 17.1461C29.8781 16.1195 30.6825 15.2969 31.7 14.6781V10.375H5.3V14.6781C6.3175 15.2969 7.12188 16.1195 7.71313 17.1461C8.30438 18.1727 8.6 19.2906 8.6 20.5C8.6 21.7094 8.30438 22.8273 7.71313 23.8539C7.12188 24.8805 6.3175 25.7031 5.3 26.3219V30.625Z" fill="#232323"/>
</svg>
