<svg width="40" height="40" viewBox="0 0 40 40" fill="none" xmlns="http://www.w3.org/2000/svg">
<path d="M13.9008 28.6667H23.8182V27L22.1653 26.1667C23.0744 26.1667 23.8526 25.8403 24.5 25.1875C25.1474 24.5347 25.4711 23.75 25.4711 22.8333V15.3333C25.4711 14.1389 24.9614 13.2847 23.9421 12.7708C22.9228 12.2569 21.2286 12 18.8595 12C16.573 12 14.8994 12.2639 13.8388 12.7917C12.7782 13.3194 12.2479 14.1667 12.2479 15.3333V22.8333C12.2479 23.75 12.5716 24.5347 13.219 25.1875C13.8664 25.8403 14.6446 26.1667 15.5537 26.1667L13.9008 27V28.6667ZM15.9669 24.5C15.6088 24.5 15.3127 24.3819 15.0785 24.1458C14.8443 23.9097 14.7273 23.6111 14.7273 23.25C14.7273 22.8889 14.8443 22.5903 15.0785 22.3542C15.3127 22.1181 15.6088 22 15.9669 22C16.3251 22 16.6212 22.1181 16.8554 22.3542C17.0895 22.5903 17.2066 22.8889 17.2066 23.25C17.2066 23.6111 17.0895 23.9097 16.8554 24.1458C16.6212 24.3819 16.3251 24.5 15.9669 24.5ZM21.752 24.5C21.3939 24.5 21.0978 24.3819 20.8636 24.1458C20.6295 23.9097 20.5124 23.6111 20.5124 23.25C20.5124 22.8889 20.6295 22.5903 20.8636 22.3542C21.0978 22.1181 21.3939 22 21.752 22C22.1102 22 22.4063 22.1181 22.6405 22.3542C22.8746 22.5903 22.9917 22.8889 22.9917 23.25C22.9917 23.6111 22.8746 23.9097 22.6405 24.1458C22.4063 24.3819 22.1102 24.5 21.752 24.5ZM14.7273 20.3333V15.3333H22.9917V20.3333H14.7273ZM5.63635 33.6667C4.72726 33.6667 3.94902 33.3403 3.30164 32.6875C2.65426 32.0347 2.33057 31.25 2.33057 30.3333V24.7083C2.33057 24.4028 2.42699 24.1389 2.61982 23.9167C2.81266 23.6944 3.06059 23.5556 3.36362 23.5C4.02478 23.2778 4.56886 22.875 4.99586 22.2917C5.42285 21.7083 5.63635 21.0556 5.63635 20.3333C5.63635 19.6111 5.42285 18.9583 4.99586 18.375C4.56886 17.7917 4.02478 17.3889 3.36362 17.1667C3.06059 17.1111 2.81266 16.9722 2.61982 16.75C2.42699 16.5278 2.33057 16.2639 2.33057 15.9583V10.3333C2.33057 9.41667 2.65426 8.63194 3.30164 7.97917C3.94902 7.32639 4.72726 7 5.63635 7H32.0826C32.9917 7 33.77 7.32639 34.4173 7.97917C35.0647 8.63194 35.3884 9.41667 35.3884 10.3333V15.9583C35.3884 16.2639 35.292 16.5278 35.0992 16.75C34.9063 16.9722 34.6584 17.1111 34.3554 17.1667C33.6942 17.3889 33.1501 17.7917 32.7231 18.375C32.2961 18.9583 32.0826 19.6111 32.0826 20.3333C32.0826 21.0556 32.2961 21.7083 32.7231 22.2917C33.1501 22.875 33.6942 23.2778 34.3554 23.5C34.6584 23.5556 34.9063 23.6944 35.0992 23.9167C35.292 24.1389 35.3884 24.4028 35.3884 24.7083V30.3333C35.3884 31.25 35.0647 32.0347 34.4173 32.6875C33.77 33.3403 32.9917 33.6667 32.0826 33.6667H5.63635ZM5.63635 30.3333H32.0826V26.0833C31.0633 25.4722 30.2576 24.6597 29.6653 23.6458C29.073 22.6319 28.7768 21.5278 28.7768 20.3333C28.7768 19.1389 29.073 18.0347 29.6653 17.0208C30.2576 16.0069 31.0633 15.1944 32.0826 14.5833V10.3333H5.63635V14.5833C6.65563 15.1944 7.46142 16.0069 8.05371 17.0208C8.64599 18.0347 8.94213 19.1389 8.94213 20.3333C8.94213 21.5278 8.64599 22.6319 8.05371 23.6458C7.46142 24.6597 6.65563 25.4722 5.63635 26.0833V30.3333Z" fill="#1F5673"/>
</svg>
