<svg width="206" height="199" viewBox="0 0 206 199" fill="none" xmlns="http://www.w3.org/2000/svg">
<path d="M191.022 163.346C191.124 164.433 190.989 165.528 190.628 166.561C190.266 167.595 189.684 168.544 188.921 169.348C188.157 170.152 187.228 170.793 186.193 171.23C185.158 171.667 184.04 171.891 182.911 171.886H22.6172C21.5504 171.892 20.4931 171.693 19.5065 171.301C18.5198 170.909 17.6234 170.332 16.869 169.603C16.1147 168.875 15.5174 168.009 15.1118 167.056C14.7062 166.103 14.5003 165.081 14.506 164.051V103.19C14.5003 102.159 14.7062 101.138 15.1118 100.185C15.5174 99.2316 16.1147 98.3656 16.869 97.6369C17.6234 96.9082 18.5198 96.3313 19.5065 95.9394C20.4931 95.5476 21.5504 95.3487 22.6172 95.3542H112.313C116.627 95.3452 120.935 95.692 125.188 96.3906C136.546 98.2023 147.357 102.387 156.868 108.653C166.378 114.918 174.358 123.114 180.25 132.667L180.894 133.745C183.307 137.7 185.333 141.863 186.945 146.182C188.456 150.222 189.591 154.384 190.336 158.62C190.593 160.154 190.851 161.688 191.022 163.346Z" fill="#84D2DB"/>
<path d="M33.2606 171.886H22.6172C21.5504 171.892 20.4931 171.693 19.5065 171.301C18.5198 170.909 17.6234 170.332 16.869 169.604C16.1147 168.875 15.5174 168.009 15.1118 167.056C14.7062 166.103 14.5003 165.081 14.506 164.051V129.557H22.746V164.051C23.0985 166.422 24.394 168.567 26.3573 170.03C28.3206 171.493 30.797 172.159 33.2606 171.886ZM22.746 108.828H14.506V103.19C14.5003 102.159 14.7062 101.138 15.1118 100.185C15.5174 99.2316 16.1147 98.3657 16.869 97.637C17.6234 96.9083 18.5198 96.3313 19.5065 95.9395C20.4931 95.5476 21.5504 95.3487 22.6172 95.3542H33.2606C30.797 95.0817 28.3206 95.7478 26.3573 97.2108C24.394 98.6739 23.0985 100.819 22.746 103.19V108.828Z" fill="#D8DBDD"/>
<path d="M180.851 133.579L107.292 133.703V95.3542H112.313C116.627 95.3452 120.934 95.692 125.188 96.3906C136.545 98.2023 147.357 102.387 156.867 108.653C166.378 114.918 174.357 123.114 180.25 132.667L180.851 133.579Z" fill="#B1DCFA"/>
<path d="M47.2084 108.828H14.5059V129.557H47.2084V108.828Z" fill="#B1DCFA"/>
<path d="M22.7459 108.828H14.5059V129.557H22.7459V108.828Z" fill="#A4C6DE"/>
<path d="M94.4167 115.917H64.375V146.141H94.4167V115.917Z" fill="#8ACBF9"/>
<path d="M190.292 158.578H14.334V146.141H186.902C188.413 150.181 189.548 154.343 190.292 158.578Z" fill="#79AED3"/>
<path d="M22.7459 146.141H14.5059V158.578H22.7459V146.141Z" fill="#73A4C6"/>
<path d="M152.354 185.526C155.909 185.526 158.792 182.742 158.792 179.307C158.792 175.873 155.909 173.089 152.354 173.089C148.799 173.089 145.917 175.873 145.917 179.307C145.917 182.742 148.799 185.526 152.354 185.526Z" fill="#53A4C7"/>
<path d="M139.479 185.526C143.034 185.526 145.917 182.742 145.917 179.307C145.917 175.873 143.034 173.089 139.479 173.089C135.924 173.089 133.042 175.873 133.042 179.307C133.042 182.742 135.924 185.526 139.479 185.526Z" fill="#53A4C7"/>
<path d="M49.354 185.526C52.9093 185.526 55.7915 182.742 55.7915 179.307C55.7915 175.873 52.9093 173.089 49.354 173.089C45.7987 173.089 42.9165 175.873 42.9165 179.307C42.9165 182.742 45.7987 185.526 49.354 185.526Z" fill="#53A4C7"/>
<path d="M36.479 185.526C40.0343 185.526 42.9165 182.742 42.9165 179.307C42.9165 175.873 40.0343 173.089 36.479 173.089C32.9237 173.089 30.0415 175.873 30.0415 179.307C30.0415 182.742 32.9237 185.526 36.479 185.526Z" fill="#53A4C7"/>
<path d="M197.417 184.49H8.5835V190.708H197.417V184.49Z" fill="#5B5E5F"/>
<path d="M152.354 169.979C149.968 169.991 147.672 170.863 145.917 172.425C144.535 171.204 142.815 170.397 140.966 170.103C139.118 169.809 137.221 170.041 135.506 170.771C133.792 171.5 132.334 172.696 131.311 174.211C130.287 175.727 129.742 177.498 129.742 179.307C129.742 181.117 130.287 182.888 131.311 184.403C132.334 185.919 133.792 187.115 135.506 187.844C137.221 188.574 139.118 188.806 140.966 188.512C142.815 188.218 144.535 187.411 145.917 186.189C147.078 187.192 148.473 187.907 149.983 188.273C151.493 188.639 153.072 188.646 154.586 188.292C156.099 187.938 157.5 187.234 158.67 186.242C159.839 185.249 160.742 183.996 161.299 182.592C161.857 181.188 162.053 179.674 161.871 178.18C161.689 176.687 161.134 175.258 160.254 174.017C159.374 172.777 158.196 171.761 156.82 171.057C155.444 170.354 153.911 169.984 152.354 169.979ZM139.479 182.417C138.843 182.417 138.22 182.234 137.691 181.893C137.162 181.551 136.749 181.065 136.506 180.497C136.262 179.929 136.198 179.304 136.322 178.701C136.447 178.098 136.753 177.544 137.203 177.109C137.653 176.674 138.227 176.378 138.851 176.258C139.476 176.138 140.123 176.199 140.711 176.435C141.299 176.67 141.802 177.069 142.156 177.58C142.509 178.091 142.698 178.692 142.698 179.307C142.687 180.129 142.344 180.913 141.743 181.494C141.142 182.075 140.33 182.406 139.479 182.417ZM152.354 182.417C151.718 182.417 151.095 182.234 150.566 181.893C150.037 181.551 149.624 181.065 149.381 180.497C149.137 179.929 149.073 179.304 149.197 178.701C149.322 178.098 149.628 177.544 150.078 177.109C150.528 176.674 151.102 176.378 151.726 176.258C152.351 176.138 152.998 176.199 153.586 176.435C154.174 176.67 154.677 177.069 155.031 177.58C155.384 178.091 155.573 178.692 155.573 179.307C155.562 180.129 155.219 180.913 154.618 181.494C154.017 182.075 153.205 182.406 152.354 182.417ZM49.3543 169.979C46.9678 169.991 44.6719 170.863 42.9168 172.425C41.5347 171.204 39.8146 170.397 37.9661 170.103C36.1176 169.809 34.2206 170.041 32.5061 170.771C30.7917 171.5 29.334 172.696 28.3105 174.211C27.2871 175.727 26.7422 177.498 26.7422 179.307C26.7422 181.117 27.2871 182.888 28.3105 184.403C29.334 185.919 30.7917 187.115 32.5061 187.844C34.2206 188.574 36.1176 188.806 37.9661 188.512C39.8146 188.218 41.5347 187.411 42.9168 186.189C44.0775 187.192 45.4729 187.907 46.9829 188.273C48.493 188.639 50.0725 188.646 51.5856 188.292C53.0988 187.938 54.5004 187.234 55.6698 186.242C56.8393 185.249 57.7416 183.996 58.2992 182.592C58.8569 181.188 59.0531 179.674 58.8712 178.18C58.6892 176.687 58.1343 175.258 57.2544 174.017C56.3745 172.777 55.1958 171.761 53.8197 171.057C52.4436 170.354 50.9112 169.984 49.3543 169.979ZM36.4793 182.417C35.8427 182.417 35.2204 182.234 34.6911 181.893C34.1618 181.551 33.7492 181.065 33.5056 180.497C33.262 179.929 33.1982 179.304 33.3224 178.701C33.4466 178.098 33.7532 177.544 34.2033 177.109C34.6535 176.674 35.227 176.378 35.8514 176.258C36.4758 176.138 37.1229 176.199 37.7111 176.435C38.2992 176.67 38.8019 177.069 39.1556 177.58C39.5093 178.091 39.6981 178.692 39.6981 179.307C39.687 180.129 39.3443 180.913 38.743 181.494C38.1418 182.075 37.3295 182.406 36.4793 182.417ZM49.3543 182.417C48.7177 182.417 48.0954 182.234 47.5661 181.893C47.0368 181.551 46.6242 181.065 46.3806 180.497C46.137 179.929 46.0732 179.304 46.1974 178.701C46.3216 178.098 46.6282 177.544 47.0783 177.109C47.5285 176.674 48.102 176.378 48.7264 176.258C49.3508 176.138 49.9979 176.199 50.5861 176.435C51.1742 176.67 51.6769 177.069 52.0306 177.58C52.3843 178.091 52.5731 178.692 52.5731 179.307C52.562 180.129 52.2193 180.913 51.618 181.494C51.0168 182.075 50.2045 182.406 49.3543 182.417Z" fill="#5B5E5F"/>
</svg>
