<svg width="188" height="188" viewBox="0 0 188 188" fill="none" xmlns="http://www.w3.org/2000/svg">
<path d="M50.1252 152.356C43.857 154.035 37.414 150.316 35.7344 144.047L19.0083 81.6244C17.3287 75.3562 21.0485 68.9132 27.3168 67.2337L140.813 36.8225C147.081 35.1429 153.524 38.8628 155.204 45.1309L171.93 107.554C173.609 113.822 169.89 120.265 163.622 121.945L50.1252 152.356Z" fill="#4C9EBC"/>
<path d="M24.9688 138.652C18.4794 138.652 13.2188 133.391 13.2188 126.902V62.2769C13.2188 55.7876 18.4794 50.5269 24.9688 50.5269H142.469C148.958 50.5269 154.219 55.7876 154.219 62.2769V126.902C154.219 133.391 148.958 138.652 142.469 138.652H24.9688Z" fill="#5BD3FF"/>
<path d="M118.969 138.652V50.5269H142.469C148.958 50.5269 154.219 55.7876 154.219 62.2769V126.902C154.219 133.391 148.958 138.652 142.469 138.652H118.969Z" fill="#58D1FD"/>
<path d="M24.9688 62.2769H95.4688V74.0269H24.9688V62.2769ZM24.9688 79.9019H60.2188V91.6519H24.9688V79.9019ZM136.594 57.8706H142.469V69.6206H136.594V57.8706ZM136.594 78.4331H142.469V90.1831H136.594V78.4331ZM136.594 98.9956H142.469V110.746H136.594V98.9956ZM136.594 119.558H142.469V131.308H136.594V119.558Z" fill="white"/>
</svg>
