<svg width="177" height="177" viewBox="0 0 177 177" fill="none" xmlns="http://www.w3.org/2000/svg">
<path d="M53.5603 138.631L46.0059 131.077C42.4717 127.543 39.7438 123.285 38.0097 118.598C36.2756 113.91 35.5762 108.903 35.9595 103.919L67.7379 72.1406C72.7214 71.7573 77.7288 72.4566 82.4165 74.1907C87.1043 75.9248 91.3614 78.6526 94.8956 82.1868L102.45 89.7411L125.721 114.807L78.8388 165.208L53.5603 138.631Z" fill="#84D2DB"/>
<path d="M102.45 89.741L135.695 122.986C136.498 123.788 137.135 124.741 137.569 125.79C138.003 126.838 138.227 127.962 138.227 129.097C138.227 130.232 138.003 131.356 137.569 132.405C137.135 133.453 136.498 134.406 135.695 135.209C134.893 136.011 133.94 136.648 132.892 137.082C131.843 137.516 130.719 137.74 129.584 137.74C128.449 137.74 127.325 137.516 126.277 137.082C125.228 136.648 124.275 136.011 123.473 135.209L104.895 116.63M104.895 116.63L123.473 135.209C125.094 136.829 126.004 139.028 126.004 141.32C126.004 143.612 125.094 145.81 123.473 147.431C121.852 149.052 119.654 149.962 117.362 149.962C115.069 149.962 112.871 149.052 111.25 147.431L92.6724 128.853" fill="#84D2DB"/>
<path d="M104.895 116.631L123.473 135.209C125.094 136.829 126.004 139.028 126.004 141.32C126.004 143.612 125.094 145.81 123.473 147.431C121.852 149.052 119.654 149.962 117.362 149.962C115.069 149.962 112.871 149.052 111.25 147.431L92.6724 128.853" fill="#84D2DB"/>
<path d="M123.473 142.245C121.852 143.866 119.654 144.777 117.362 144.777C115.07 144.777 112.871 143.866 111.251 142.245L95.2653 126.26C94.5777 126.948 94.1914 127.88 94.1914 128.853C94.1914 129.825 94.5777 130.758 95.2653 131.446L111.251 147.431C112.871 149.052 115.07 149.962 117.362 149.962C119.654 149.962 121.852 149.052 123.473 147.431C124.59 146.314 125.38 144.912 125.756 143.377C126.132 141.842 126.08 140.234 125.606 138.727C125.19 140.055 124.458 141.262 123.473 142.245ZM135.697 130.023C134.076 131.644 131.878 132.554 129.586 132.554C127.294 132.554 125.095 131.644 123.475 130.023L107.489 114.038C106.802 114.726 106.415 115.658 106.415 116.631C106.415 117.603 106.802 118.536 107.489 119.223L123.475 135.209C124.277 136.011 125.23 136.648 126.279 137.082C127.327 137.517 128.451 137.74 129.586 137.74C130.721 137.74 131.845 137.517 132.893 137.082C133.942 136.648 134.895 136.011 135.697 135.209C136.815 134.092 137.605 132.689 137.981 131.155C138.357 129.62 138.305 128.012 137.83 126.505C137.414 127.833 136.683 129.04 135.697 130.023H135.697Z" fill="#5EB9F9"/>
<path d="M92.6725 128.853L111.251 147.431C112.871 149.052 113.782 151.25 113.782 153.542C113.782 155.834 112.871 158.032 111.251 159.653C109.63 161.274 107.432 162.185 105.139 162.185C102.847 162.185 100.649 161.274 99.0283 159.653L80.4502 141.075" fill="#84D2DB"/>
<path d="M111.25 154.468C109.63 156.088 107.431 156.999 105.139 156.999C102.847 156.999 100.649 156.088 99.028 154.468L83.0427 138.482C82.355 139.17 81.9688 140.103 81.9688 141.075C81.9688 142.048 82.355 142.98 83.0427 143.668L99.028 159.653C100.649 161.274 102.847 162.185 105.139 162.185C107.431 162.185 109.63 161.274 111.25 159.653C112.368 158.536 113.157 157.134 113.534 155.6C113.91 154.065 113.858 152.457 113.383 150.95C112.967 152.278 112.235 153.485 111.25 154.468Z" fill="#5EB9F9"/>
<path d="M80.45 141.075L99.0281 159.653C99.8307 160.456 100.467 161.409 100.902 162.457C101.336 163.506 101.56 164.63 101.56 165.765C101.56 166.9 101.336 168.024 100.902 169.072C100.467 170.121 99.8307 171.074 99.0281 171.876C98.2256 172.679 97.2728 173.315 96.2242 173.75C95.1756 174.184 94.0518 174.408 92.9168 174.408C91.7818 174.408 90.6579 174.184 89.6093 173.75C88.5607 173.315 87.608 172.679 86.8054 171.876L53.5605 138.631" fill="#84D2DB"/>
<path d="M99.0281 166.691C98.2256 167.493 97.2728 168.13 96.2242 168.564C95.1756 168.998 94.0518 169.222 92.9168 169.222C91.7818 169.222 90.6579 168.998 89.6093 168.564C88.5607 168.13 87.608 167.493 86.8054 166.691L59.2646 139.149L53.5605 138.631L86.8054 171.876C87.608 172.679 88.5607 173.315 89.6093 173.75C90.6579 174.184 91.7818 174.408 92.9168 174.408C94.0518 174.408 95.1756 174.184 96.2242 173.75C97.2728 173.315 98.2256 172.679 99.0281 171.876C100.146 170.759 100.935 169.357 101.311 167.822C101.687 166.288 101.635 164.679 101.161 163.172C100.745 164.5 100.013 165.708 99.0278 166.691H99.0281Z" fill="#5EB9F9"/>
<path d="M66.6377 73.2407L37.0594 102.819C36.0967 103.782 34.9537 104.547 33.6956 105.068C32.4374 105.59 31.0889 105.858 29.727 105.858C28.3651 105.858 27.0166 105.59 25.7585 105.068C24.5003 104.547 23.3573 103.782 22.3946 102.819L19.6498 100.074L2.59277 83.0172L40.3539 33.0735L66.6377 58.5725C66.9482 58.8829 67.238 59.2132 67.5054 59.5613C69.0507 61.5563 69.8152 64.0465 69.6554 66.5649C69.4957 69.0833 68.4227 71.457 66.6377 73.2407Z" fill="#53A4C7"/>
<path d="M81.3428 153.962C82.1453 154.764 82.782 155.717 83.2163 156.766C83.6507 157.814 83.8742 158.938 83.8742 160.073C83.8742 161.208 83.6507 162.332 83.2163 163.381C82.782 164.429 82.1453 165.382 81.3428 166.184L75.6511 171.876C74.8486 172.679 73.8958 173.315 72.8472 173.75C71.7986 174.184 70.6748 174.408 69.5398 174.408C68.4048 174.408 67.2809 174.184 66.2323 173.75C65.1837 173.315 64.231 172.679 63.4284 171.876C61.8077 170.255 60.8971 168.057 60.8971 165.765C60.8971 163.473 61.8077 161.275 63.4284 159.654L69.1204 153.962C70.7412 152.341 72.9395 151.43 75.2316 151.43C77.5237 151.43 79.722 152.341 81.3428 153.962ZM69.1201 141.739C69.9227 142.542 70.5593 143.494 70.9937 144.543C71.428 145.592 71.6516 146.715 71.6516 147.85C71.6516 148.985 71.428 150.109 70.9937 151.158C70.5593 152.206 69.9227 153.159 69.1201 153.962L63.4284 159.653C61.8076 161.274 59.6094 162.185 57.3173 162.185C55.0251 162.185 52.8269 161.274 51.2061 159.653C49.5853 158.033 48.6748 155.834 48.6748 153.542C48.6748 151.25 49.5853 149.052 51.2061 147.431L56.8978 141.739C58.5185 140.118 60.7168 139.208 63.0089 139.208C65.3011 139.208 67.4993 140.118 69.1201 141.739Z" fill="#AEDCFD"/>
<path d="M56.8981 129.517C58.5189 131.137 59.4294 133.336 59.4294 135.628C59.4294 137.92 58.5189 140.118 56.8981 141.739L51.2064 147.431C49.5856 149.052 47.3874 149.962 45.0953 149.962C42.8031 149.962 40.6049 149.052 38.9841 147.431C38.1815 146.628 37.5449 145.676 37.1105 144.627C36.6762 143.579 36.4526 142.455 36.4526 141.32C36.4526 140.185 36.6762 139.061 37.1105 138.012C37.5449 136.964 38.1815 136.011 38.9841 135.208L44.6758 129.517C46.2966 127.896 48.4948 126.985 50.7869 126.985C53.0791 126.985 55.2773 127.896 56.8981 129.517Z" fill="#AEDCFD"/>
<path d="M44.6756 117.294C45.4782 118.097 46.1148 119.05 46.5492 120.098C46.9835 121.147 47.2071 122.271 47.2071 123.406C47.2071 124.541 46.9835 125.665 46.5492 126.713C46.1148 127.762 45.4782 128.715 44.6756 129.517L38.984 135.209C38.1814 136.011 37.2286 136.648 36.1801 137.082C35.1315 137.517 34.0076 137.74 32.8726 137.74C31.7376 137.74 30.6138 137.517 29.5652 137.082C28.5166 136.648 27.5638 136.011 26.7613 135.209C25.1405 133.588 24.23 131.39 24.23 129.098C24.23 126.805 25.1405 124.607 26.7613 122.986L32.4533 117.294C34.0741 115.674 36.2723 114.763 38.5644 114.763C40.8566 114.763 43.0548 115.674 44.6756 117.294ZM107.895 69.3049H101.295C99.0731 69.305 96.8761 69.7738 94.8475 70.6808C92.819 71.5878 91.0046 72.9126 89.523 74.5686L69.019 97.4863C68.0882 98.5267 67.5912 99.884 67.63 101.279C67.6688 102.675 68.2404 104.002 69.2275 104.989C71.5002 107.262 74.5826 108.539 77.7967 108.539C81.0108 108.539 84.0933 107.262 86.366 104.989L102.032 89.3232L130.372 117.663C136.959 113.452 141.986 107.2 144.685 99.863L107.895 69.3049Z" fill="#AEDCFD"/>
<path d="M174.407 83.0172L157.565 99.8599L154.605 102.819C153.643 103.782 152.5 104.547 151.242 105.068C149.984 105.59 148.635 105.858 147.273 105.858C145.911 105.858 144.563 105.59 143.305 105.068C142.046 104.547 140.903 103.782 139.941 102.819L110.362 73.2407C109.399 72.2777 108.635 71.1344 108.113 69.876C107.592 68.6176 107.324 67.2688 107.324 65.9066C107.324 64.5445 107.592 63.1957 108.113 61.9373C108.635 60.6789 109.399 59.5355 110.362 58.5725L113.743 55.1639L135.675 33.0735L174.407 83.0172Z" fill="#22A9E4"/>
<path d="M157.565 99.8599L154.605 102.819C153.643 103.782 152.5 104.547 151.242 105.068C149.984 105.59 148.635 105.858 147.273 105.858C145.911 105.858 144.563 105.59 143.305 105.068C142.046 104.547 140.903 103.782 139.941 102.819L110.362 73.2408C109.399 72.2778 108.635 71.1344 108.113 69.876C107.592 68.6176 107.324 67.2688 107.324 65.9067C107.324 64.5445 107.592 63.1957 108.113 61.9373C108.635 60.6789 109.399 59.5356 110.362 58.5726L113.743 55.1639L113.781 55.1536L157.565 99.8599Z" fill="#2391C0"/>
<path d="M66.6379 73.2406L37.0595 102.819C36.0969 103.782 34.9538 104.547 33.6957 105.068C32.4376 105.589 31.089 105.858 29.7271 105.858C28.3653 105.858 27.0167 105.589 25.7586 105.068C24.5005 104.547 23.3574 103.782 22.3948 102.819L19.6499 100.074L63.3779 55.4299L67.5056 59.5611C69.0509 61.5561 69.8153 64.0463 69.6556 66.5647C69.4958 69.0831 68.4228 71.4568 66.6379 73.2406Z" fill="#107EAE"/>
<path d="M88.4998 76.0699C108.79 76.0699 125.238 59.6215 125.238 39.3313C125.238 19.0412 108.79 2.59277 88.4998 2.59277C68.2096 2.59277 51.7612 19.0412 51.7612 39.3313C51.7612 59.6215 68.2096 76.0699 88.4998 76.0699Z" fill="#E1E2E3"/>
<path d="M88.5002 2.59277C86.4105 2.59277 84.3247 2.77065 82.2651 3.12446C90.8023 4.5948 98.5453 9.0345 104.127 15.6595C109.708 22.2846 112.77 30.6688 112.77 39.3317C112.77 47.9945 109.708 56.3788 104.127 63.0038C98.5453 69.6289 90.8023 74.0686 82.2651 75.5389C87.2795 76.402 92.4185 76.214 97.3565 74.9871C102.294 73.7601 106.924 71.5208 110.951 68.4111C114.978 65.3013 118.316 61.389 120.752 56.922C123.188 52.4549 124.669 47.5306 125.103 42.4609C125.536 37.3913 124.912 32.2869 123.269 27.4712C121.626 22.6556 119.001 18.2336 115.56 14.4855C112.119 10.7374 107.937 7.74499 103.279 5.69778C98.6209 3.65057 93.5884 2.59323 88.5002 2.59277Z" fill="#A4C6DE"/>
<path d="M88.4998 78.6629C80.7208 78.6629 73.1165 76.3562 66.6485 72.0344C60.1805 67.7127 55.1393 61.57 52.1624 54.3831C49.1855 47.1963 48.4066 39.2881 49.9242 31.6586C51.4418 24.029 55.1877 17.0209 60.6882 11.5203C66.1888 6.01967 73.1969 2.27369 80.8264 0.756045C88.4559 -0.761603 96.3642 0.0172396 103.551 2.99408C110.738 5.97092 116.881 11.0121 121.202 17.48C125.524 23.948 127.831 31.5523 127.831 39.3312C127.819 49.759 123.672 59.7563 116.298 67.1299C108.925 74.5035 98.9276 78.6511 88.4998 78.6629ZM88.4998 5.18546C81.7464 5.18546 75.1447 7.18808 69.5294 10.9401C63.9142 14.6921 59.5376 20.0249 56.9532 26.2642C54.3688 32.5036 53.6926 39.3691 55.0101 45.9928C56.3276 52.6164 59.5797 58.7006 64.3551 63.476C69.1305 68.2513 75.2147 71.5034 81.8383 72.8209C88.4619 74.1385 95.3275 73.4623 101.567 70.8778C107.806 68.2934 113.139 63.9169 116.891 58.3016C120.643 52.6864 122.646 46.0846 122.646 39.3312C122.635 30.2784 119.035 21.5992 112.633 15.1979C106.232 8.79649 97.5527 5.19571 88.4998 5.18546Z" fill="#767E81"/>
<path d="M88.5 61.5732C84.2506 59.6502 80.4744 56.8189 77.4375 53.2787C73.081 48.1536 70.7793 42.0216 70.7793 35.5431V24.0415C75.5286 23.7946 80.1544 22.4402 84.287 20.0867C85.7813 19.2204 87.1918 18.2169 88.5 17.0891C89.8083 18.2168 91.2188 19.2202 92.7131 20.0864C96.8457 22.4399 101.471 23.7942 106.221 24.0412V35.5427C106.221 42.0212 103.919 48.1533 99.5643 53.2766C96.527 56.8177 92.7503 59.6497 88.5 61.5732Z" fill="#2488B3"/>
</svg>
